<?xml version="1.0" encoding="UTF-8" standalone="no"?>
<!-- Created with Inkscape (http://www.inkscape.org/) -->

<svg
   width="297mm"
   height="210mm"
   viewBox="0 0 297 210"
   version="1.1"
   id="svg5"
   inkscape:version="1.2.2 (732a01da63, 2022-12-09)"
   sodipodi:docname="drawing7_path.svg"
   xmlns:inkscape="http://www.inkscape.org/namespaces/inkscape"
   xmlns:sodipodi="http://sodipodi.sourceforge.net/DTD/sodipodi-0.dtd"
   xmlns="http://www.w3.org/2000/svg"
   xmlns:svg="http://www.w3.org/2000/svg">
  <sodipodi:namedview
     id="namedview7"
     pagecolor="#ffffff"
     bordercolor="#666666"
     borderopacity="1.0"
     inkscape:showpageshadow="2"
     inkscape:pageopacity="0.0"
     inkscape:pagecheckerboard="0"
     inkscape:deskcolor="#d1d1d1"
     inkscape:document-units="mm"
     showgrid="false"
     inkscape:zoom="1.4142136"
     inkscape:cx="61.164735"
     inkscape:cy="16.970562"
     inkscape:window-width="1920"
     inkscape:window-height="1147"
     inkscape:window-x="-8"
     inkscape:window-y="-8"
     inkscape:window-maximized="1"
     inkscape:current-layer="layer1" />
  <defs
     id="defs2">
    <rect
       x="-309.42457"
       y="-205.64241"
       width="51.891076"
       height="49.969185"
       id="rect311" />
    <rect
       x="-322.87781"
       y="-232.5489"
       width="1322.2615"
       height="588.09886"
       id="rect305" />
  </defs>
  <g
     inkscape:label="Layer 1"
     inkscape:groupmode="layer"
     id="layer1">
    <g
       aria-label="CHAOS - COMMUNICATION - CAMP - 2023 - "
       id="text1041"
       style="font-size:14px;line-height:1.25;letter-spacing:4.19894px;word-spacing:0px;stroke-width:0.264583">
      <path
         d="M 71.862546,0.78999577 C 69.369503,0.72363804 67.142057,2.3724998 66.932315,4.9121998 l -0.0037,0.055878 c -0.09802,1.059845 0.188647,2.2432977 1.049777,3.2261538 0.07828,0.089351 0.187275,0.1386366 0.299032,0.1460139 0.223513,0.014755 0.431998,-0.1679095 0.446753,-0.391423 0.0074,-0.1117568 -0.02715,-0.22628 -0.105439,-0.3156306 C 67.95333,6.8737126 67.680767,5.9016482 67.737018,5.0495028 l 0.0037,-0.055878 c 0.182078,-2.1206122 2.077294,-3.4125824 4.094449,-3.3636086 l 0.139696,0.00922 c 2.081469,0.1374022 3.999953,1.6811228 3.855173,3.8743494 -0.04795,0.726419 -0.326932,1.339374 -0.650725,1.7810053 -0.04652,0.067081 -0.07999,0.1490547 -0.0846,0.2189027 -0.01475,0.2235136 0.166987,0.4459678 0.390501,0.4607224 0.139696,0.00922 0.284003,-0.051405 0.37612,-0.1715982 0.477321,-0.6419535 0.767367,-1.4225438 0.820853,-2.2327803 0.178899,-2.7101017 -2.109523,-4.60094354 -4.63802,-4.76785492 z"
         style="font-weight:bold;font-family:Beon;-inkscape-font-specification:'Beon Bold'"
         id="path273" />
      <path
         d="m 66.073359,14.306069 c -0.229747,-0.06213 -0.452949,0.06604 -0.515081,0.295791 -0.06213,0.229747 0.06605,0.452948 0.295791,0.51508 l 8.649294,2.339084 c 0.229747,0.06213 0.452949,-0.06604 0.515081,-0.295791 0.06213,-0.229747 -0.06605,-0.452948 -0.295792,-0.51508 z M 64.479857,20.1984 c -0.229747,-0.06213 -0.452948,0.06604 -0.51508,0.295791 -0.06213,0.229747 0.06604,0.452948 0.295791,0.51508 l 8.649294,2.339085 c 0.229747,0.06213 0.452948,-0.06604 0.51508,-0.295791 0.06213,-0.229747 -0.06604,-0.452949 -0.295791,-0.51508 z m 6.223974,-2.957744 c 0.06213,-0.229747 -0.06604,-0.452949 -0.295791,-0.515081 -0.229747,-0.06213 -0.452949,0.06605 -0.515081,0.295791 l -0.972182,3.594863 c -0.06213,0.229747 0.06605,0.452949 0.295791,0.51508 0.229747,0.06213 0.452949,-0.06604 0.515081,-0.295791 z"
         style="font-weight:bold;font-family:Beon;-inkscape-font-specification:'Beon Bold'"
         id="path275" />
      <path
         d="m 58.706714,33.141515 c -0.169042,-0.0064 -0.325638,0.08741 -0.400883,0.237617 -0.100326,0.200276 -3.53e-4,0.469574 0.199924,0.5699 0.05007,0.02508 0.106408,0.03765 0.169018,0.03769 l 9.729143,0.583327 c 0.169042,0.0064 0.325638,-0.08741 0.400882,-0.237617 0.100327,-0.200276 3.53e-4,-0.469574 -0.199923,-0.5699 -0.05007,-0.02508 -0.106408,-0.03765 -0.169018,-0.03769 z m 3.755383,-6.715221 c -0.03753,-0.05012 -0.08133,-0.08771 -0.143913,-0.119067 -0.187759,-0.09406 -0.450763,-0.03791 -0.563631,0.187406 -0.07524,0.150208 -0.0566,0.33179 0.04974,0.463351 l 5.091916,6.026903 c 0.03753,0.05012 0.08133,0.08772 0.143913,0.119067 0.187759,0.09406 0.450763,0.0379 0.563631,-0.187406 0.07524,-0.150207 0.0566,-0.33179 -0.04974,-0.463351 z m 1.668455,4.296296 c 0.106596,-0.212794 0.02539,-0.457034 -0.187406,-0.563631 -0.212794,-0.106597 -0.457034,-0.02539 -0.563631,0.187406 l -1.003264,2.002763 c -0.106597,0.212794 -0.02539,0.457034 0.187406,0.563631 0.212793,0.106596 0.457033,0.02539 0.56363,-0.187406 z"
         style="font-weight:bold;font-family:Beon;-inkscape-font-specification:'Beon Bold'"
         id="path277" />
      <path
         d="m 59.134787,47.677549 c -0.237571,0.186805 -0.304557,0.383856 -0.213831,0.652424 0.101693,0.277269 0.276809,0.326852 0.507944,0.170684 0.322682,-0.226504 0.629866,-0.501048 0.890915,-0.830066 1.574996,-1.985081 1.07553,-4.936964 -1.019223,-6.598976 -2.094753,-1.662012 -5.082887,-1.477249 -6.657883,0.507831 -1.574996,1.985081 -1.07553,4.936964 1.019224,6.598976 1.381879,1.096406 3.149717,1.391017 4.656345,0.888625 0.07641,-0.02873 0.133151,-0.0552 0.167957,-0.09907 0.06091,-0.07677 0.06055,-0.166414 0.02729,-0.282162 l -0.031,-0.09608 c -0.09299,-0.288237 -0.25297,-0.379423 -0.560876,-0.284166 -1.194551,0.356829 -2.599286,0.100112 -3.728918,-0.796156 -1.776702,-1.409665 -2.136319,-3.83955 -0.883284,-5.41884 1.253036,-1.57929 3.701046,-1.781557 5.477747,-0.371892 1.776702,1.409665 2.13632,3.83955 0.883284,5.41884 -0.156629,0.197411 -0.343895,0.388387 -0.535692,0.540024 z"
         style="font-weight:bold;font-family:Beon;-inkscape-font-specification:'Beon Bold'"
         id="path279" />
      <path
         d="m 49.633862,58.694828 c 0.566507,-0.479202 0.976013,-1.100652 1.018878,-1.852053 0.05026,-0.720981 -0.281787,-1.265268 -0.453576,-1.468355 -0.153707,-0.18171 -0.42089,-0.194083 -0.6026,-0.04038 -0.171021,0.144665 -0.192435,0.401159 -0.05846,0.581222 0.543297,0.750669 0.151838,1.631908 -0.478802,2.165359 l -0.02138,0.01808 c -0.748216,0.632908 -1.901654,0.765089 -2.604442,0.02097 -0.155353,-0.161979 -0.411848,-0.183393 -0.582869,-0.03873 -0.192398,0.162748 -0.21546,0.438973 -0.04202,0.62233 1.049661,1.11083 2.702947,0.940909 3.803894,0.0096 z m -0.491096,-3.398672 c 0.171021,-0.144664 0.194083,-0.420889 0.04942,-0.59191 -0.135623,-0.160332 -0.605856,-0.239327 -0.812201,-0.266489 -0.679874,-0.0667 -1.338406,0.08694 -1.922959,0.306349 -0.65608,0.243243 -1.248869,0.561307 -1.849016,0.610541 -0.120029,0.0098 -0.2491,0.009 -0.367482,-8.79e-4 -0.118382,-0.0099 -0.240059,0.01969 -0.325569,0.09203 -0.07482,0.06329 -0.122519,0.158648 -0.141444,0.266341 -0.0099,0.118382 0.01969,0.240059 0.09203,0.325569 0.06329,0.07482 0.158647,0.122519 0.266341,0.141444 0.177573,0.01483 0.356793,0.0099 0.526972,-0.0057 0.759637,-0.05579 1.47575,-0.423158 2.080033,-0.640923 0.748985,-0.285156 1.289941,-0.339332 2.01008,-0.160001 0.145506,0.04195 0.286913,0.01402 0.393801,-0.07639 z m -5.862654,-4.025949 c -1.218524,1.030736 -1.772878,2.673223 -0.744632,4.040548 l 0.02712,0.03207 c 0.153706,0.18171 0.42089,0.194083 0.602599,0.04038 0.18171,-0.153707 0.194083,-0.42089 0.04038,-0.6026 l -0.01808,-0.02138 C 42.3828,53.807917 42.960106,52.60444 43.783144,51.908241 l 0.01069,-0.009 c 0.919237,-0.777573 2.400734,-1.150581 3.277763,-0.113767 l 0.03617,0.04276 c 0.162748,0.192398 0.438973,0.21546 0.631371,0.05271 0.171021,-0.144664 0.192436,-0.401159 0.05846,-0.581221 l -0.05425,-0.06413 c -1.211566,-1.4323 -3.169886,-1.059366 -4.452543,0.02562 z"
         style="font-weight:bold;font-family:Beon;-inkscape-font-specification:'Beon Bold'"
         id="path281" />
      <path
         d="m 32.758165,63.979846 c 0.21357,-0.105032 0.29657,-0.348669 0.191538,-0.562239 -0.105032,-0.21357 -0.348669,-0.29657 -0.562239,-0.191538 l -2.135703,1.05032 c -0.21357,0.105033 -0.29657,0.34867 -0.191538,0.56224 0.105032,0.21357 0.348669,0.29657 0.562239,0.191538 z"
         style="font-weight:bold;font-family:Beon;-inkscape-font-specification:'Beon Bold'"
         id="path283" />
      <path
         d="m 18.507196,69.461579 c -0.600162,-2.420635 -2.782812,-4.128352 -5.286614,-3.653965 l -0.05484,0.01133 c -1.04766,0.187851 -2.111983,0.779422 -2.829927,1.871259 -0.06527,0.09926 -0.08374,0.21744 -0.06108,0.327123 0.04532,0.219368 0.276922,0.371659 0.49629,0.326339 0.109683,-0.02266 0.210869,-0.08645 0.276137,-0.18571 0.554775,-0.843692 1.419106,-1.365355 2.255445,-1.538139 l 0.05484,-0.01133 c 2.092489,-0.389411 3.842641,1.093154 4.332786,3.050466 l 0.02833,0.137104 c 0.422045,2.042859 -0.554829,4.303251 -2.707372,4.747956 -0.712944,0.147292 -1.378067,0.04168 -1.889996,-0.152769 -0.07705,-0.02697 -0.164977,-0.0374 -0.23353,-0.02323 -0.219367,0.04532 -0.385369,0.279754 -0.340049,0.499122 0.02833,0.137104 0.125203,0.260046 0.265593,0.316816 0.74591,0.289064 1.575559,0.360688 2.370766,0.196402 2.65983,-0.549509 3.872734,-3.258942 3.360048,-5.740536 z"
         style="font-weight:bold;font-family:Beon;-inkscape-font-specification:'Beon Bold'"
         id="path285" />
      <path
         d="m -0.68924908,75.955548 c -0.29395247,-0.0702 -0.48999992,-3.33e-4 -0.64416122,0.237563 -0.1541708,0.251895 -0.084285,0.419943 0.1816583,0.504123 0.37792395,0.112256 0.7838764,0.182532 1.2038763,0.182816 2.5339994,0.0017 4.5375081,-2.222924 4.539321,-4.896923 0.00181,-2.674 -1.9986774,-4.901356 -4.53267684,-4.903074 -2.53399946,-0.0017 -4.53750816,2.222924 -4.53932106,4.896923 -0.0012,1.764 0.8657408,3.332588 2.195152,4.201489 0.069971,0.04205 0.1259525,0.07009 0.1819525,0.07012 0.098,6.6e-5 0.168038,-0.05589 0.2381044,-0.153839 l 0.056057,-0.08396 c 0.1681708,-0.251886 0.1402942,-0.433905 -0.1255823,-0.616085 -1.0215157,-0.714693 -1.6926613,-1.975148 -1.6916837,-3.417148 0.00154,-2.267999 1.6827522,-4.05886 3.69875176,-4.057493 2.01599954,0.0014 3.69478424,1.794505 3.69324654,4.062505 -0.00154,2.267999 -1.6827522,4.05886 -3.6987517,4.057493 -0.25199994,-1.71e-4 -0.5179809,-0.02835 -0.75594288,-0.08451 z"
         style="font-weight:bold;font-family:Beon;-inkscape-font-specification:'Beon Bold'"
         id="path287" />
      <path
         d="m -16.505074,67.488875 c 0.0433,-0.06172 0.08338,-0.109814 0.09943,-0.177951 0.05133,-0.218039 -0.06407,-0.460949 -0.322996,-0.521906 -0.149902,-0.03529 -0.308634,0.02802 -0.422481,0.145045 l -5.287554,6.147913 c -0.0433,0.06172 -0.08338,0.109814 -0.09943,0.177951 -0.05133,0.218039 0.06408,0.46095 0.322996,0.521906 0.149902,0.03529 0.308634,-0.02802 0.422481,-0.145045 z m 5.913758,-0.621346 c 0.05454,-0.231666 -0.08091,-0.45053 -0.312577,-0.50507 -0.231667,-0.05454 -0.45053,0.08091 -0.50507,0.312577 l -2.053262,8.721566 c -0.05454,0.231667 0.08091,0.450531 0.312577,0.50507 0.231667,0.05454 0.45053,-0.08091 0.50507,-0.312576 z m -4.438515,-1.246289 c -0.03285,-0.165943 -0.1635,-0.282998 -0.313402,-0.318288 -0.231666,-0.05454 -0.45053,0.08091 -0.50507,0.312577 -0.01283,0.05451 -0.01525,0.125855 -8.24e-4,0.186781 l 1.746682,7.243011 c 0.03285,0.165943 0.163499,0.282998 0.313401,0.318288 0.231667,0.05454 0.450531,-0.08091 0.50507,-0.312577 0.01283,-0.05451 0.01525,-0.125855 8.25e-4,-0.186781 z m -4.623738,-0.887178 c 0.05454,-0.231666 -0.08091,-0.45053 -0.312577,-0.50507 -0.231666,-0.05454 -0.45053,0.08091 -0.50507,0.312577 l -1.430866,6.077842 c -0.05454,0.231666 0.08091,0.45053 0.312577,0.50507 0.231666,0.05454 0.45053,-0.08091 0.50507,-0.312577 z"
         style="font-weight:bold;font-family:Beon;-inkscape-font-specification:'Beon Bold'"
         id="path289" />
      <path
         d="m -32.541405,61.383388 c 0.05718,-0.04914 0.107887,-0.08586 0.140233,-0.147942 0.10351,-0.19865 0.05156,-0.462516 -0.184335,-0.585433 -0.136572,-0.07116 -0.306014,-0.04895 -0.445201,0.03639 l -6.640205,4.654323 c -0.05718,0.04914 -0.107887,0.08586 -0.140233,0.147942 -0.10351,0.19865 -0.05156,0.462516 0.184335,0.585433 0.136572,0.07116 0.306014,0.04895 0.445201,-0.03639 z m 5.884373,0.856011 c 0.109978,-0.211066 0.03268,-0.45657 -0.178389,-0.566549 -0.211066,-0.109978 -0.45657,-0.03268 -0.566549,0.178389 l -4.140368,7.946003 c -0.109978,0.211065 -0.03268,0.45657 0.17839,0.566548 0.211065,0.109979 0.45657,0.03268 0.566548,-0.178389 z m -3.994171,-2.302227 c 0.0091,-0.168918 -0.08867,-0.314575 -0.225244,-0.385737 -0.211066,-0.109979 -0.45657,-0.03268 -0.566549,0.178389 -0.02588,0.04966 -0.04581,0.11821 -0.04685,0.180811 l -0.09318,7.450062 c -0.0091,0.168918 0.08867,0.314575 0.225243,0.385737 0.211066,0.109979 0.45657,0.03268 0.566549,-0.178389 0.02588,-0.04966 0.04581,-0.11821 0.04685,-0.180811 z m -4.262222,-1.999874 c 0.109978,-0.211066 0.03268,-0.45657 -0.178389,-0.566549 -0.211066,-0.109978 -0.456571,-0.03268 -0.566549,0.17839 l -2.885319,5.53737 c -0.109978,0.211066 -0.03268,0.45657 0.178389,0.566549 0.211066,0.109978 0.45657,0.03268 0.566549,-0.17839 z"
         style="font-weight:bold;font-family:Beon;-inkscape-font-specification:'Beon Bold'"
         id="path291" />
      <path
         d="m -44.955956,57.921001 c 0.154502,-0.181034 0.134213,-0.43762 -0.04682,-0.592121 -0.181034,-0.154502 -0.43762,-0.134213 -0.592122,0.04682 l -2.090319,2.449279 c -0.154502,0.181033 -0.134213,0.437619 0.04682,0.592121 0.181034,0.154502 0.43762,0.134213 0.592122,-0.04682 z m -4.751031,-4.073139 c 0.154502,-0.181034 0.134213,-0.43762 -0.04682,-0.592122 -0.181034,-0.154502 -0.43762,-0.134213 -0.592122,0.04682 l -2.090319,2.449278 c -0.154502,0.181034 -0.134213,0.43762 0.04682,0.592122 0.181034,0.154502 0.43762,0.134213 0.592122,-0.04682 z m 1.785722,-2.157073 c 0.99063,-1.160745 2.589909,-1.029014 3.676111,-0.102003 1.1075,0.945188 1.449466,2.507011 0.477014,3.646458 l -0.927012,1.086202 c -0.154502,0.181033 -0.134213,0.437619 0.04682,0.592121 0.181034,0.154502 0.43762,0.134213 0.592121,-0.04682 l 0.917923,-1.075552 c 0.04544,-0.05324 0.290827,-0.340769 0.439087,-0.600753 0.778933,-1.451847 0.201127,-3.233351 -0.991565,-4.251246 -1.203341,-1.026983 -3.042866,-1.308533 -4.354252,-0.311103 -0.233451,0.187277 -0.478837,0.474801 -0.524278,0.528046 l -0.917923,1.075552 c -0.154502,0.181034 -0.134213,0.43762 0.04682,0.592122 0.181033,0.154502 0.437619,0.134213 0.592121,-0.04682 z"
         style="font-weight:bold;font-family:Beon;-inkscape-font-specification:'Beon Bold'"
         id="path293" />
      <path
         d="m -54.704633,39.236375 c 0.04762,-0.143752 0.01663,-0.297179 -0.06952,-0.407527 -0.137854,-0.176557 -0.423998,-0.201807 -0.600555,-0.06395 -0.05517,0.04308 -0.104151,0.116844 -0.133478,0.193028 l -3.331622,10.292218 c -0.04762,0.143751 -0.01663,0.297178 0.06952,0.407527 0.137853,0.176557 0.423997,0.201806 0.600554,0.06395 0.05517,-0.04308 0.104152,-0.116844 0.133478,-0.193028 z m -2.351476,1.924813 c 0.187592,-0.14647 0.219038,-0.401928 0.07257,-0.58952 -0.146469,-0.187592 -0.401928,-0.219039 -0.58952,-0.07257 l -4.85532,3.790973 c -0.187591,0.146469 -0.219038,0.401928 -0.07257,0.58952 0.14647,0.187592 0.401928,0.219038 0.58952,0.07257 z m 5.937625,3.054906 c 0.187592,-0.146469 0.219038,-0.401928 0.07257,-0.58952 -0.14647,-0.187591 -0.401928,-0.219038 -0.58952,-0.07257 l -4.85532,3.790973 c -0.187592,0.146469 -0.219038,0.401928 -0.07257,0.589519 0.146469,0.187592 0.401928,0.219039 0.58952,0.07257 z"
         style="font-weight:bold;font-family:Beon;-inkscape-font-specification:'Beon Bold'"
         id="path295" />
      <path
         d="m -58.80033,33.174538 c 0.207904,-0.115844 0.278302,-0.363417 0.162457,-0.571321 -0.115844,-0.207903 -0.363416,-0.278302 -0.57132,-0.162457 l -7.826971,4.361206 c -0.207904,0.115845 -0.278303,0.363417 -0.162458,0.571321 0.115844,0.207904 0.363417,0.278303 0.571321,0.162458 z"
         style="font-weight:bold;font-family:Beon;-inkscape-font-specification:'Beon Bold'"
         id="path297" />
      <path
         d="m -65.916862,28.679214 c 2.302791,-0.957508 3.662699,-3.372236 2.817022,-5.77617 l -0.01945,-0.05251 c -0.34333,-1.007474 -1.088292,-1.970683 -2.275714,-2.516193 -0.107948,-0.04959 -0.227563,-0.05007 -0.332589,-0.01117 -0.210052,0.07781 -0.325766,0.329686 -0.247959,0.539738 0.0389,0.105026 0.117193,0.195463 0.22514,0.245055 0.917554,0.42153 1.563315,1.197541 1.859956,1.998365 l 0.01945,0.05251 c 0.699788,2.010086 -0.502598,3.963365 -2.363891,4.742404 l -0.131283,0.04863 c -1.956112,0.724584 -4.337744,0.0989 -5.101231,-1.962241 -0.252875,-0.68267 -0.248528,-1.356113 -0.133313,-1.891468 0.01507,-0.08023 0.01215,-0.168726 -0.01217,-0.234367 -0.07781,-0.210053 -0.334548,-0.338895 -0.5446,-0.261087 -0.131283,0.04863 -0.238251,0.1629 -0.273254,0.310233 -0.173553,0.780909 -0.119544,1.611891 0.162509,2.373331 0.943417,2.546884 3.804489,3.338357 6.180705,2.458159 z"
         style="font-weight:bold;font-family:Beon;-inkscape-font-specification:'Beon Bold'"
         id="path299" />
      <path
         d="m -67.019294,7.2390988 c 0.141188,-0.093177 0.213952,-0.2605852 0.187732,-0.4265264 -0.03496,-0.2212551 -0.272976,-0.3820782 -0.494232,-0.3471181 -0.05531,0.00874 -0.108442,0.031308 -0.159386,0.067705 l -8.25151,5.1873963 c -0.141188,0.09318 -0.213952,0.260585 -0.187732,0.426526 0.03496,0.221255 0.272977,0.382078 0.494232,0.347118 0.05531,-0.0087 0.108443,-0.03131 0.159386,-0.06771 z m 0.853857,7.6464382 c 0.05968,0.01892 0.117183,0.02401 0.186325,0.01308 0.207427,-0.03278 0.388633,-0.231492 0.349303,-0.480404 -0.02622,-0.165941 -0.147054,-0.302759 -0.310092,-0.347866 l -7.648203,-1.938081 c -0.05968,-0.01892 -0.117183,-0.02401 -0.186325,-0.01308 -0.207426,0.03277 -0.388633,0.231491 -0.349303,0.480403 0.02622,0.165942 0.147054,0.302759 0.310092,0.347866 z m -3.857025,-2.522944 c 0.03715,0.235084 0.24532,0.386449 0.480403,0.349304 0.235084,-0.03715 0.386448,-0.24532 0.349303,-0.480404 l -0.349601,-2.21255 c -0.03715,-0.2350837 -0.245319,-0.3864484 -0.480403,-0.3493033 -0.235083,0.037145 -0.386448,0.2453199 -0.349303,0.4804033 z"
         style="font-weight:bold;font-family:Beon;-inkscape-font-specification:'Beon Bold'"
         id="path301" />
      <path
         d="m -76.944973,0.87287779 c -0.0074,0.23788491 0.168854,0.42545531 0.406739,0.43285471 0.237885,0.0074 0.425456,-0.1688543 0.432855,-0.40673923 l 0.204136,-6.56282597 c 0.0074,-0.2378849 -0.168854,-0.4254553 -0.406739,-0.4328547 -0.237885,-0.0074 -0.425455,0.1688543 -0.432855,0.4067392 z m 9.464258,-2.56299659 c 0.237885,0.0074 0.425456,-0.1688543 0.432855,-0.4067392 0.0074,-0.2378849 -0.168854,-0.4254553 -0.406739,-0.4328547 l -7.696278,-0.2393919 c -0.237885,-0.0074 -0.425455,0.1688543 -0.432855,0.4067392 -0.0074,0.237885 0.168855,0.4254554 0.40674,0.4328548 z"
         style="font-weight:bold;font-family:Beon;-inkscape-font-specification:'Beon Bold'"
         id="path303" />
      <path
         d="m -66.529679,-11.476356 c 0.234328,0.04164 0.445366,-0.105703 0.48701,-0.340031 0.04164,-0.234328 -0.105703,-0.445366 -0.340031,-0.48701 l -8.821773,-1.567777 c -0.234328,-0.04164 -0.445366,0.105702 -0.48701,0.340031 -0.04164,0.234328 0.105703,0.445366 0.340031,0.48701 z"
         style="font-weight:bold;font-family:Beon;-inkscape-font-specification:'Beon Bold'"
         id="path305" />
      <path
         d="m -71.426048,-25.900487 c 0.163906,-0.253911 0.163168,-0.462035 -0.01,-0.686499 -0.186337,-0.229125 -0.368058,-0.219063 -0.535841,0.0038 -0.23148,0.319132 -0.432681,0.678651 -0.572539,1.074681 -0.84381,2.389381 0.588494,5.018371 3.109885,5.9088 2.521391,0.890428 5.287006,-0.256068 6.130815,-2.645449 0.843809,-2.389381 -0.588494,-5.018371 -3.109885,-5.9088 -1.663326,-0.587403 -3.430877,-0.291077 -4.692223,0.673978 -0.06291,0.05202 -0.107962,0.0955 -0.12661,0.148304 -0.03263,0.09241 -0.0031,0.177059 0.06596,0.275698 l 0.06056,0.08078 c 0.181674,0.242326 0.362611,0.276529 0.622801,0.08632 1.013572,-0.725914 2.425435,-0.939988 3.785138,-0.45981 2.138562,0.755233 3.268858,2.93608 2.59754,4.837024 -0.671318,1.900944 -2.920478,2.888337 -5.05904,2.133105 -2.138562,-0.755233 -3.268858,-2.93608 -2.59754,-4.837024 0.08391,-0.237618 0.198893,-0.479113 0.33095,-0.684883 z"
         style="font-weight:bold;font-family:Beon;-inkscape-font-specification:'Beon Bold'"
         id="path307" />
      <path
         d="m -56.058439,-37.280969 c 0.151311,-0.0061 0.283977,-0.08916 0.356885,-0.208675 0.116652,-0.191228 0.03945,-0.467915 -0.151782,-0.584567 -0.05976,-0.03645 -0.146051,-0.05629 -0.227682,-0.05689 l -10.806032,0.509022 c -0.151311,0.0061 -0.283977,0.08916 -0.356885,0.208675 -0.116652,0.191228 -0.03945,0.467914 0.151782,0.584567 0.05976,0.03645 0.146051,0.05629 0.227682,0.05689 z m -2.629987,-1.522338 c 0.20318,0.123943 0.453333,0.06335 0.577276,-0.13983 0.123944,-0.20318 0.06335,-0.453333 -0.139829,-0.577276 l -5.258777,-3.207938 c -0.20318,-0.123943 -0.453333,-0.06335 -0.577276,0.13983 -0.123943,0.20318 -0.06335,0.453333 0.13983,0.577276 z m -0.76655,6.633268 c 0.20318,0.123943 0.453333,0.06335 0.577276,-0.13983 0.123944,-0.20318 0.06335,-0.453333 -0.139829,-0.577276 l -5.258777,-3.207938 c -0.20318,-0.123943 -0.453333,-0.06335 -0.577276,0.13983 -0.123943,0.20318 -0.06335,0.453333 0.13983,0.577276 z"
         style="font-weight:bold;font-family:Beon;-inkscape-font-specification:'Beon Bold'"
         id="path309" />
      <path
         d="m -50.907198,-50.723885 c -0.17079,0.165755 -0.174641,0.423113 -0.0089,0.593903 0.165755,0.17079 0.423113,0.174641 0.593903,0.0089 l 1.707902,-1.65755 c 0.170791,-0.165755 0.174641,-0.423113 0.0089,-0.593903 -0.165755,-0.17079 -0.423113,-0.174641 -0.593903,-0.0089 z"
         style="font-weight:bold;font-family:Beon;-inkscape-font-specification:'Beon Bold'"
         id="path311" />
      <path
         d="m -39.057908,-60.337458 c 1.322422,2.114443 3.927578,3.059651 6.160145,1.830946 l 0.04861,-0.02781 c 0.937475,-0.504004 1.765375,-1.396933 2.10863,-2.657777 0.0312,-0.114622 0.01205,-0.232695 -0.04356,-0.329913 -0.111223,-0.194436 -0.378674,-0.267247 -0.573111,-0.156024 -0.09722,0.05561 -0.173582,0.147679 -0.204787,0.262302 -0.265242,0.974288 -0.924761,1.73864 -1.666049,2.162678 l -0.04861,0.02781 c -1.867999,1.020162 -3.992113,0.154615 -5.066033,-1.553602 l -0.06952,-0.121523 c -1.035764,-1.810687 -0.809392,-4.262708 1.098513,-5.354084 0.631918,-0.361475 1.296944,-0.467701 1.843949,-0.441901 0.08162,0.0017 0.168432,-0.01571 0.229193,-0.05046 0.194436,-0.111223 0.2794,-0.385626 0.168177,-0.580062 -0.06951,-0.121523 -0.19979,-0.208288 -0.350869,-0.218639 -0.798803,-0.04305 -1.609657,0.146592 -2.314488,0.549776 -2.357539,1.348579 -2.668772,4.300746 -1.410562,6.500306 z"
         style="font-weight:bold;font-family:Beon;-inkscape-font-specification:'Beon Bold'"
         id="path313" />
      <path
         d="m -18.091397,-64.948379 c 0.115111,0.123957 0.292201,0.168222 0.451577,0.11509 0.212503,-0.07084 0.332027,-0.332052 0.261184,-0.544554 -0.01771,-0.05313 -0.0487,-0.101824 -0.09298,-0.146094 l -6.472829,-7.286905 c -0.115112,-0.123957 -0.292201,-0.168222 -0.451578,-0.115089 -0.212502,0.07084 -0.332026,0.332052 -0.261183,0.544554 0.01771,0.05313 0.0487,0.101823 0.09298,0.146094 z m -7.402179,2.098771 c -0.0089,0.06198 -0.0044,0.119535 0.01772,0.185942 0.06641,0.199221 0.292207,0.345309 0.531272,0.265611 0.159377,-0.05313 0.274479,-0.194807 0.292181,-0.363041 l 0.654923,-7.862712 c 0.0089,-0.06198 0.0044,-0.119535 -0.01772,-0.185942 -0.06642,-0.199221 -0.292208,-0.345309 -0.531273,-0.265611 -0.159377,0.05313 -0.274478,0.194807 -0.292181,0.363041 z m 1.85483,-4.219182 c -0.225784,0.07527 -0.340882,0.305489 -0.265611,0.531273 0.07527,0.225784 0.305489,0.340882 0.531273,0.265611 l 2.125023,-0.708431 c 0.225784,-0.07527 0.340882,-0.30549 0.265611,-0.531273 -0.07527,-0.225784 -0.305489,-0.340882 -0.531272,-0.265611 z"
         style="font-weight:bold;font-family:Beon;-inkscape-font-specification:'Beon Bold'"
         id="path315" />
      <path
         d="m -6.3370317,-69.176928 c -0.021,0.07241 -0.043372,0.130885 -0.036507,0.200547 0.021969,0.222921 0.2097556,0.415431 0.4744732,0.389342 0.1532575,-0.0151 0.2829709,-0.126362 0.3528351,-0.273925 l 3.0142137,-7.52792 c 0.021,-0.07241 0.043372,-0.130885 0.036507,-0.200547 -0.021969,-0.222921 -0.2097557,-0.415431 -0.4744732,-0.389342 -0.1532576,0.0151 -0.282971,0.126362 -0.3528352,0.273925 z m -5.3947023,2.501157 c 0.02334,0.236852 0.222315,0.400125 0.459168,0.376782 0.236852,-0.02334 0.400125,-0.222315 0.376782,-0.459167 l -0.878773,-8.916802 c -0.02334,-0.236853 -0.222315,-0.400125 -0.459167,-0.376783 -0.236853,0.02334 -0.400125,0.222315 -0.376783,0.459168 z m 4.6030169,-0.256689 c 0.084766,0.146392 0.2462625,0.214883 0.39952,0.199779 0.2368525,-0.02334 0.400125,-0.222315 0.3767826,-0.459168 -0.00549,-0.05573 -0.02629,-0.124019 -0.059648,-0.177003 l -3.9960149,-6.288399 c -0.08477,-0.146392 -0.246263,-0.214883 -0.39952,-0.199779 -0.236853,0.02334 -0.400125,0.222315 -0.376783,0.459167 0.0055,0.05573 0.02629,0.12402 0.05965,0.177003 z m 4.6620979,-0.656411 c 0.023342,0.236852 0.222315,0.400125 0.4591676,0.376782 0.2368525,-0.02334 0.400125,-0.222315 0.3767826,-0.459167 l -0.612395,-6.213897 c -0.023343,-0.236852 -0.2223151,-0.400125 -0.4591676,-0.376782 -0.2368526,0.02334 -0.400125,0.222315 -0.3767826,0.459167 z"
         style="font-weight:bold;font-family:Beon;-inkscape-font-specification:'Beon Bold'"
         id="path317" />
      <path
         d="m 4.9651982,-67.388658 c -0.027865,0.236363 0.1315739,0.43842 0.367937,0.466285 0.2363631,0.02787 0.4384203,-0.131574 0.4662858,-0.367937 l 1.0490533,-8.898375 c 0.027865,-0.236363 -0.1315739,-0.43842 -0.367937,-0.466286 -0.2363631,-0.02786 -0.4384203,0.131574 -0.4662857,0.367937 z m 2.919614,-9.100759 c -0.2363631,-0.02787 -0.4384203,0.131574 -0.4662857,0.367937 -0.027865,0.236363 0.1315738,0.43842 0.3679369,0.466286 l 2.0160382,0.237676 c 1.5294084,0.180306 1.7859414,1.352402 1.6793974,2.256144 -0.140967,1.195719 -0.916471,1.795044 -1.9731528,1.670468 l -2.1411716,-0.252428 c -0.2363631,-0.02787 -0.4384203,0.131574 -0.4662857,0.367937 -0.027865,0.236363 0.1315738,0.43842 0.3679369,0.466286 l 2.1411717,0.252428 c 1.4459855,0.170471 2.7008305,-0.668379 2.9057235,-2.406343 0.177028,-1.5016 -0.510462,-2.964152 -2.4152706,-3.188715 z"
         style="font-weight:bold;font-family:Beon;-inkscape-font-specification:'Beon Bold'"
         id="path319" />
      <path
         d="m 24.604526,-67.540591 c -0.222203,-0.08526 -0.457325,0.01946 -0.542588,0.241658 -0.08526,0.222203 0.01945,0.457324 0.241658,0.542588 l 2.22203,0.852632 c 0.222204,0.08526 0.457325,-0.01946 0.542588,-0.241658 0.08526,-0.222203 -0.01946,-0.457325 -0.241658,-0.542588 z"
         style="font-weight:bold;font-family:Beon;-inkscape-font-specification:'Beon Bold'"
         id="path321" />
      <path
         d="m 43.8308,-63.029593 c -0.988528,-0.686459 -2.358494,-0.772787 -3.295062,0.04206 -0.20842,0.173027 -0.198822,0.515105 0.03938,0.680516 0.166739,0.115788 0.384094,0.107846 0.535612,-0.03408 0.613352,-0.527351 1.58169,-0.472776 2.224829,-0.02616 l 0.02382,0.01654 c 0.702688,0.487965 1.069922,1.484419 0.548875,2.234747 -0.281199,0.404939 -0.711606,0.617999 -1.17675,0.753976 -0.675221,0.184281 -1.479468,0.173043 -2.308527,0.197535 -1.617756,0.04171 -3.168019,0.34212 -4.152218,1.759407 l -0.04135,0.05955 c -0.05789,0.08337 -0.115788,0.16674 -0.161773,0.25838 -0.112148,0.186921 -0.04466,0.445628 0.133994,0.569687 0.214379,0.148871 0.493268,0.07774 0.630228,-0.144911 l 0.124059,-0.17865 c 0.810517,-1.167177 2.161623,-1.358745 3.477662,-1.398131 0.796968,-0.02912 1.665396,-0.0086 2.518602,-0.24584 0.675221,-0.184281 1.260785,-0.519088 1.666044,-1.102677 0.793976,-1.143357 0.332118,-2.664505 -0.7636,-3.425399 z m -6.203962,6.442656 c -0.20247,-0.1406 -0.464817,-0.09329 -0.605417,0.109182 -0.1406,0.20247 -0.09329,0.464817 0.109182,0.605417 l 3.048953,2.117269 c 0.202469,0.1406 0.464817,0.09329 0.605417,-0.109182 0.140599,-0.202469 0.09329,-0.464817 -0.109182,-0.605417 z"
         style="font-size:14.5px"
         id="path323" />
      <path
         d="m 54.246442,-53.040996 c 0.04068,0.08219 0.09174,0.133662 0.142795,0.185134 0.132749,0.133828 0.276125,0.175421 0.471056,0.14545 0.297543,-0.05006 0.380231,-0.213777 0.268485,-0.470558 -0.162637,-0.349264 -0.37658,-0.688483 -0.662501,-0.976728 l -0.06127,-0.06177 c -0.908988,-0.875194 -2.169231,-1.095609 -3.359903,-0.772326 -0.903256,0.24242 -1.818135,0.823147 -2.590218,1.589008 -1.235334,1.225377 -2.175365,2.954353 -1.721159,4.729983 0.141301,0.554241 0.42631,1.068051 0.834769,1.479829 l 0.06127,0.06177 c 0.878353,0.844311 2.08729,1.074772 3.25729,0.792418 1.067387,-0.262263 1.951714,-0.894379 2.68262,-1.619394 1.080917,-1.072205 1.885958,-2.381349 1.851252,-3.939965 4.98e-4,-0.123036 -0.0401,-0.225731 -0.101368,-0.287498 -0.08169,-0.08235 -0.19435,-0.113571 -0.35848,-0.09373 -0.276955,0.02964 -0.400571,0.172683 -0.401815,0.480272 -0.0051,1.250861 -0.716872,2.32456 -1.581606,3.182324 -0.9265,0.919034 -2.211398,1.723832 -3.57384,1.420979 -0.419998,-0.09398 -0.829287,-0.300697 -1.145925,-0.599319 l -0.04085,-0.04118 c -0.633112,-0.638255 -0.834521,-1.541346 -0.656694,-2.412143 0.177744,-0.85029 0.724594,-1.699088 1.332382,-2.404095 l 0.195594,-0.194018 c 0.905912,-0.89861 2.180432,-1.672691 3.501944,-1.390509 0.512234,0.104603 0.921357,0.352334 1.207361,0.620073 l 0.04085,0.04118 c 0.153172,0.154416 0.295967,0.33955 0.407961,0.534813 z"
         style="font-size:14.5px"
         id="path325" />
      <path
         d="m 63.507216,-43.137023 c -0.678405,-0.994072 -1.927325,-1.563686 -3.093041,-1.136792 -0.25645,0.08724 -0.369578,0.410212 -0.206107,0.649748 0.11443,0.167674 0.320303,0.237834 0.512499,0.159334 0.761175,-0.273697 1.646254,0.122904 2.087627,0.769649 l 0.01635,0.02395 c 0.48224,0.70663 0.469629,1.768525 -0.284907,2.283459 -0.40721,0.277901 -0.885313,0.323306 -1.368354,0.284307 -0.696521,-0.06886 -1.443784,-0.366409 -2.226978,-0.639439 -1.526087,-0.538454 -3.081465,-0.811151 -4.5067,0.161503 l -0.05988,0.04087 c -0.08384,0.05721 -0.167675,0.114429 -0.243339,0.183621 -0.171477,0.13458 -0.200769,0.400338 -0.07817,0.579989 0.147124,0.215582 0.433031,0.248677 0.64044,0.08958 l 0.179651,-0.122604 c 1.173723,-0.801009 2.504212,-0.497719 3.747627,-0.06479 0.75487,0.25725 1.558781,0.586361 2.440458,0.669298 0.696521,0.06886 1.363016,-0.0349 1.949878,-0.435401 1.149769,-0.784662 1.261263,-2.370465 0.509296,-3.472328 z m -8.094859,3.803974 c -0.13895,-0.203605 -0.400905,-0.253046 -0.60451,-0.114096 -0.203605,0.138951 -0.253046,0.400905 -0.114096,0.60451 l 2.092432,3.066052 c 0.13895,0.203605 0.400904,0.253047 0.604509,0.114096 0.203605,-0.13895 0.253047,-0.400905 0.114096,-0.60451 z"
         style="font-size:14.5px"
         id="path327" />
      <path
         d="m 69.939203,-31.756158 c -0.382896,-0.845326 -1.286894,-1.470532 -2.227712,-1.474173 -0.18717,-0.02665 -0.362374,-0.02688 -0.573705,0.06885 -0.211332,0.09572 -0.318471,0.351189 -0.222747,0.56252 0.08376,0.184915 0.293616,0.296795 0.496479,0.252661 0.715498,-0.212662 1.449263,0.282717 1.742417,0.929919 l 0.01795,0.03962 c 0.335033,0.73966 0.115322,1.730595 -0.650755,2.077593 -0.36983,0.167517 -0.776568,0.11298 -1.155647,0.01408 -0.09595,-0.03613 -0.197892,-0.08546 -0.286621,-0.140782 -0.127111,-0.06977 -0.246997,-0.158729 -0.353675,-0.253672 -0.186938,-0.201851 -0.371391,-0.468501 -0.485063,-0.719457 -0.101707,-0.22454 -0.351189,-0.318471 -0.575729,-0.216764 -0.224539,0.101707 -0.318471,0.351189 -0.216764,0.575728 0.604257,1.33403 2.013202,2.160307 3.413273,1.526137 1.241572,-0.562378 1.634694,-2.013896 1.096248,-3.202634 z m -3.889395,4.626988 c 0.164713,-0.233789 0.475177,-0.883796 0.343557,-1.174376 -0.09572,-0.211332 -0.37038,-0.325696 -0.581712,-0.229973 -0.132082,0.05983 -0.23425,0.185696 -0.259655,0.340467 -0.05352,0.549543 -0.524512,0.985733 -1.000007,1.201111 -1.215156,0.550412 -2.324272,-0.141067 -2.832805,-1.263765 -0.299137,-0.66041 -0.396422,-1.507759 -0.02116,-2.155281 0.06977,-0.127111 0.06876,-0.269916 0.01491,-0.388789 -0.101706,-0.22454 -0.351189,-0.318471 -0.575728,-0.216765 -0.290581,0.131621 -0.443789,0.742234 -0.493356,1.019375 -0.153439,0.785817 0.03755,1.558888 0.288822,2.113633 0.723911,1.598194 2.326009,2.464326 3.977035,1.716484 0.449079,-0.203413 0.844314,-0.5257 1.132871,-0.94293 z"
         style="font-size:14.5px"
         id="path329" />
      <path
         d="m 70.434054,-14.332256 c -0.04327,-0.234033 -0.255329,-0.37991 -0.489362,-0.336638 -0.234033,0.04327 -0.37991,0.255328 -0.336638,0.489361 l 0.432717,2.340333 c 0.04327,0.234033 0.255328,0.37991 0.489361,0.336638 0.234034,-0.04327 0.37991,-0.255328 0.336638,-0.489362 z"
         style="font-weight:bold;font-family:Beon;-inkscape-font-specification:'Beon Bold'"
         id="path331" />
    </g>
  </g>
</svg>
